<?xml version="1.0" standalone="no"?><!DOCTYPE svg PUBLIC "-//W3C//DTD SVG 1.1//EN" "http://www.w3.org/Graphics/SVG/1.1/DTD/svg11.dtd"><svg t="1552700689727" class="icon" style="" viewBox="0 0 4442 1024" version="1.1" xmlns="http://www.w3.org/2000/svg" p-id="3562" xmlns:xlink="http://www.w3.org/1999/xlink" width="867.578125" height="200"><defs><style type="text/css"></style></defs><path d="M3207.496746 153.266811h-437.587852v64.416486h133.275488v235.453362h-157.709328v64.416486h157.709328v386.498916h73.301518V517.553145h166.59436v373.171367h133.275488v-64.416486h-57.752711V153.266811h-11.106291zM2972.043384 444.251627V217.683297h171.036876v235.453362H2976.4859V444.251627h-4.442516zM1990.247289 724.130152h348.737527v64.416486H1990.247289v-64.416486z m-239.895879-117.726681c0 113.284165-4.442516 206.577007-28.876356 279.878525 0 4.442516 0 4.442516 4.442516 4.442516h64.416486c24.433839-108.841649 24.433839-195.470716 24.43384-259.887202h88.850325v195.470716H1843.644252c-4.442516 0-4.442516 0-4.442517 4.442516l19.991324 57.752712h113.284164V153.266811H1754.793926l-4.442516 453.13666z m68.859002-31.097614v-146.603037h88.850326v157.709328h-88.850326v-11.106291z m88.850326-357.62256v151.045553h-88.850326V217.683297h88.850326z" p-id="3563" fill="#2c2c2c"></path><path d="M2363.418655 415.375271h84.407809V355.401302H2196.824295c4.442516-19.991323 8.885033-44.425163 24.433839-57.752712h215.46204v-57.752711h-57.752712c4.442516-33.318872 24.433839-77.744035 24.43384-77.744035 0-4.442516 0-4.442516-4.442517-4.442516h-53.310195l-24.433839 84.407809H2243.470716c4.442516-33.318872 8.885033-73.301518 19.991323-108.841649 0-4.442516 0-4.442516-4.442516-4.442516h-57.752712c-4.442516 44.425163-8.885033 84.407809-24.433839 117.726681h-44.425163l-24.433839-84.407809h-53.310196c-4.442516 0-4.442516 0-4.442516 4.442516s8.885033 44.425163 24.43384 77.744035h-57.752712v57.752711H2154.62039c-4.442516 19.991323-8.885033 44.425163-24.433839 57.752712h-133.275488v57.752711h102.177874c-44.425163 57.752711-84.407809 84.407809-102.177874 97.735358v64.416486c0 4.442516 4.442516 4.442516 8.885032 0 19.991323-4.442516 44.425163-24.433839 57.752712-44.425163h239.895878v88.850326h-186.585683l4.442516-53.310195c0-4.442516 0-4.442516-4.442516-4.442517h-57.752711l-4.442517 108.841649c0 4.442516 0 4.442516 4.442517 4.442516h324.303687v157.709328h-142.16052c-4.442516 0-4.442516 0-4.442517 4.442516l19.991324 57.752711h206.577006V624.173536h-77.744035v-117.726681c28.876356 24.433839 57.752711 48.867679 88.850326 57.752711 4.442516 4.442516 8.885033 4.442516 8.885032 0v-64.416486c-37.761388-6.663774-79.965293-31.097614-119.947939-84.407809z m-77.744035 0c8.885033 24.433839 28.876356 48.867679 48.867679 64.416486h-211.019522c19.991323-19.991323 28.876356-44.425163 48.867679-64.416486h113.284164z m524.21692 264.329718l-117.726681 88.850326V355.401302h-157.709328v73.301518h88.850326v397.605206c-24.433839 19.991323-44.425163 24.433839-44.425163 24.43384l44.425163 53.310195 191.028199-142.160521-4.442516-82.186551c13.327549 0 8.885033-4.442516 0 0z m-177.700651-388.720173h68.859003c8.885033 0 8.885033-4.442516 8.885032-4.442517l-97.735358-151.045553h-73.301518l-4.442517 4.442516c4.442516 4.442516 97.735358 151.045553 97.735358 151.045554z m786.32538-122.169198h548.650759v73.301519h-548.650759V168.815618z m199.913232 337.631237h430.924078v-73.301519h-710.802603v73.301519h195.470716c-44.425163 108.841649-137.718004 373.171367-142.160521 377.613883 0 4.442516 0 4.442516 4.442517 4.442516h613.067245c4.442516 0 4.442516-4.442516 4.442516-4.442516l-88.850325-239.895879h-73.301519c-4.442516 0-4.442516 4.442516-4.442516 4.442516 0 4.442516 64.416486 171.036876 64.416486 171.036877H3509.587852l108.841649-313.197397z m-2265.683297 286.542299c-19.991323 19.991323-57.752711 48.867679-126.611714 48.867679h-422.039045c126.611714-122.169197 235.453362-226.56833 244.338394-235.453362 8.885033-8.885033 33.318872-33.318872 57.752712-53.310196 48.867679-44.425163 88.850325-48.867679 122.169197-48.867678 48.867679 0 88.850325 19.991323 122.169198 48.867678 71.08026 62.195228 71.08026 175.479393 2.221258 239.895879m84.407809-319.861171c-48.867679-53.310195-122.169197-88.850325-202.13449-88.850326-68.859002 0-126.611714 24.433839-182.143167 64.416486-19.991323 19.991323-48.867679 39.982646-73.301519 68.859002-19.991323 19.991323-442.030369 430.924078-442.030368 430.924078 24.433839 4.442516 53.310195 4.442516 77.744034 4.442517h535.323211c39.982646 0 68.859002 0 97.735358-4.442517 64.416486-4.442516 126.611714-28.876356 182.143167-77.744034 113.284165-108.841649 113.284165-288.763557 6.663774-397.605206z" p-id="3564" fill="#2c2c2c"></path><path d="M748.563991 444.251627c-53.310195-39.982646-108.841649-57.752711-171.036876-57.752712-77.744035 0-151.045553 33.318872-202.13449 88.850326-108.841649 113.284165-108.841649 288.763557 4.442516 402.047722 48.867679 44.425163 97.735358 68.859002 157.709328 73.301519l113.284164-108.841649h-64.416485c-64.416486-4.442516-102.177874-24.433839-126.611714-48.867679-68.859002-68.859002-68.859002-175.479393-4.442516-244.338395 33.318872-33.318872 73.301518-48.867679 122.169197-48.867679 28.876356 0 73.301518 4.442516 117.726681 48.867679 19.991323 19.991323 73.301518 57.752711 93.292842 77.744035h4.442516l73.301518-73.301519v-4.442516c-33.318872-35.54013-86.629067-79.965293-117.726681-104.399132" p-id="3565" fill="#2c2c2c"></path><path d="M1263.895879 322.08243C1210.585683 173.258134 1068.425163 71.08026 906.273319 71.08026c-191.0282 0-344.295011 142.160521-373.171367 319.861172 15.548807 0 28.876356-4.442516 48.867679-4.442517 19.991323 0 44.425163 4.442516 64.416486 4.442517 24.433839-122.169197 133.275488-211.019523 259.887202-211.019523 108.841649 0 202.13449 64.416486 244.338395 157.709327 0 0 4.442516 4.442516 4.442516 0 35.54013-6.663774 75.522777-15.548807 108.841649-15.548806 0 4.442516 0 4.442516 0 0" p-id="3566" fill="#2c2c2c"></path></svg>