<?xml version="1.0" standalone="no"?><!DOCTYPE svg PUBLIC "-//W3C//DTD SVG 1.1//EN" "http://www.w3.org/Graphics/SVG/1.1/DTD/svg11.dtd">
<svg t="1552135808081" class="icon" style="" viewBox="0 0 1424 1024" version="1.1" xmlns="http://www.w3.org/2000/svg"
     p-id="1216"
     width="278.125" height="200"><defs><style type="text/css"></style></defs><path d="M1134.99386896 371.75578344A375.65135719 375.65135719 0 0 0 422.92585208 250.29517719 184.90394625 184.90394625 0 0 0 366.57814864 240.69519875 187.82567906 187.82567906 0 0 0 178.75246958 428.52087687a184.90394625 184.90394625 0 0 0 10.43476031 58.43465626A270.46897688 270.46897688 0 0 0 324.83910833 991.99791312h751.30271531a313.04279813 313.04279813 0 0 0 58.85204531-620.24212968zM1076.14182364 908.51983344h-751.30271531A188.24306906 188.24306906 0 0 1 137.01343021 720.69415531a185.73872625 185.73872625 0 0 1 93.91283906-161.53008375c57.18248438-32.97384094 60.93899812-39.2346975 37.14774562-98.50413375A102.6780375 102.6780375 0 0 1 262.23054927 428.52087687 104.34759938 104.34759938 0 0 1 366.57814864 324.1732775a142.330125 142.330125 0 0 1 56.34770344 9.59997938c47.99989594 19.19995781 53.00858062 0 75.54766219-48.41728594a292.1732775 292.1732775 0 0 1 553.45966594 94.33023c5.00868469 59.68682719 5.00868469 59.68682719 67.61724468 73.87810031A229.1473275 229.1473275 0 0 1 1076.14182364 908.51983344z" fill="#ffffff" p-id="1217"></path></svg>
